<svg width="53" height="53" viewBox="0 0 53 53" fill="none" xmlns="http://www.w3.org/2000/svg">
<rect width="53" height="53" fill="#BAFF3B"/>
<path d="M33.9136 34.9278L36.4105 35.1667C38.9372 35.03 38.1412 29.7984 33.9156 29.602L32.4792 29.285L34.6789 29.303C37.2135 29.4704 37.8331 23.7024 32.6719 23.3042L30.8115 23.6397L33.9727 22.7947C36.2939 23.1695 34.7487 18.2335 31.2449 17.9895L20.8504 19.8373C18.9482 12.9717 17.8153 8.51662 12.5815 9.56056C10.9986 9.9182 9.24444 10.8678 10.2179 12.2361C15.6658 20.3371 13.6943 26.6934 13.0598 28.2374C10.4027 34.3157 13.1769 41.3975 19.2556 44.0537C21.8499 45.0914 23.6413 44.2441 28.2591 42.4351C29.1316 42.0933 41.2164 40.4945 41.2164 40.4945C45.8186 39.9605 46.3526 34.583 43.1752 34.7345L41.9973 34.4611" fill="#101010"/>
<path d="M32.2683 23.9249C36.1725 23.4277 36.0981 17.1226 30.5453 18.0704L20.8504 19.8373C18.9482 12.9717 17.8153 8.51662 12.5815 9.56056C10.9986 9.9182 9.24445 10.8678 10.2179 12.2361C15.6658 20.3371 13.6943 26.6934 13.0598 28.2374C10.4027 34.3157 13.1769 41.3975 19.2556 44.0537C21.8499 45.0914 23.6413 44.2441 28.2591 42.4351C29.1316 42.0933 41.9023 40.4015 41.9023 40.4015C46.5044 39.8675 46.0336 34.9228 42.8566 35.0735L39.8473 35.1557" stroke="#101010" stroke-width="1.32784" stroke-linecap="round" stroke-linejoin="round"/>
<path d="M33.917 29.6019C37.8153 29.147 37.0495 23.1939 32.2695 23.9243" stroke="#101010" stroke-width="1.32784" stroke-linecap="round" stroke-linejoin="round"/>
<path d="M35.3195 35.4911C39.2281 35.0587 37.8752 29.1739 33.9161 29.6023" stroke="#101010" stroke-width="1.32784" stroke-linecap="round" stroke-linejoin="round"/>
<path d="M35.3165 35.491L31.4861 35.8837M33.9133 29.6029L30.5221 29.9285M32.2659 23.9252L29.5579 24.3961" stroke="#101010" stroke-width="1.32784" stroke-miterlimit="10" stroke-linecap="round" stroke-linejoin="round"/>
</svg>
