<svg width="25" height="25" viewBox="0 0 25 25" fill="none" xmlns="http://www.w3.org/2000/svg">
<path d="M13.5589 10.7313L14.9779 9.31332C14.3945 8.79201 13.6711 8.45321 12.8971 8.33886C12.1232 8.22451 11.3327 8.33963 10.6235 8.66998C9.91432 9.00033 9.31758 9.53139 8.90714 10.1974C8.49671 10.8635 8.2906 11.6353 8.31434 12.4173C8.33808 13.1993 8.59062 13.9571 9.04069 14.5971C9.49077 15.237 10.1186 15.7309 10.8465 16.0176C11.5745 16.3043 12.3705 16.3713 13.1361 16.2102C13.9017 16.0491 14.6032 15.6671 15.1539 15.1113L13.8409 13.7983H13.6309C13.345 14.0493 12.9934 14.2136 12.6174 14.2718C12.2414 14.33 11.8566 14.2798 11.5082 14.127C11.1597 13.9742 10.8621 13.7252 10.6502 13.4092C10.4383 13.0932 10.321 12.7233 10.3119 12.3429C10.3029 11.9626 10.4025 11.5875 10.5991 11.2618C10.7957 10.9361 11.0812 10.6732 11.422 10.504C11.7627 10.3348 12.1447 10.2663 12.523 10.3066C12.9013 10.3469 13.2603 10.4942 13.5579 10.7313H13.5589Z" fill="white"/>
<path fill-rule="evenodd" clip-rule="evenodd" d="M12.168 3.29492C13.3499 3.29492 14.5202 3.52771 15.6121 3.98001C16.7041 4.4323 17.6962 5.09523 18.5319 5.93096C19.3677 6.76669 20.0306 7.75884 20.4829 8.85077C20.9352 9.9427 21.168 11.113 21.168 12.2949C21.168 13.4768 20.9352 14.6471 20.4829 15.7391C20.0306 16.831 19.3677 17.8232 18.5319 18.6589C17.6962 19.4946 16.7041 20.1575 15.6121 20.6098C14.5202 21.0621 13.3499 21.2949 12.168 21.2949C9.78102 21.2949 7.49184 20.3467 5.80401 18.6589C4.11618 16.9711 3.16797 14.6819 3.16797 12.2949C3.16797 9.90797 4.11618 7.61879 5.80401 5.93096C7.49184 4.24313 9.78102 3.29492 12.168 3.29492ZM12.168 5.29492C13.0872 5.29492 13.9975 5.47598 14.8468 5.82776C15.696 6.17955 16.4677 6.69516 17.1177 7.34517C17.7677 7.99518 18.2833 8.76686 18.6351 9.61614C18.9869 10.4654 19.168 11.3757 19.168 12.2949C19.168 13.2142 18.9869 14.1244 18.6351 14.9737C18.2833 15.823 17.7677 16.5947 17.1177 17.2447C16.4677 17.8947 15.696 18.4103 14.8468 18.7621C13.9975 19.1139 13.0872 19.2949 12.168 19.2949C10.3115 19.2949 8.53098 18.5574 7.21822 17.2447C5.90547 15.9319 5.16797 14.1514 5.16797 12.2949C5.16797 10.4384 5.90547 8.65793 7.21822 7.34517C8.53098 6.03242 10.3115 5.29492 12.168 5.29492Z" fill="white"/>
</svg>
