<svg width="54" height="54" viewBox="0 0 54 54" fill="none" xmlns="http://www.w3.org/2000/svg">
<rect width="54" height="54" rx="2" fill="#BAFF3B"/>
<path d="M39.8336 17.5354C40.0597 17.3172 40.2401 17.0561 40.3642 16.7675C40.4884 16.4788 40.5538 16.1684 40.5567 15.8542C40.5595 15.54 40.4998 15.2283 40.381 14.9375C40.2621 14.6466 40.0865 14.3823 39.8645 14.16C39.6424 13.9377 39.3783 13.7619 39.0875 13.6428C38.7967 13.5236 38.4852 13.4636 38.171 13.4662C37.8568 13.4688 37.5462 13.5339 37.2575 13.6578C36.9687 13.7817 36.7075 13.9618 36.4891 14.1877L27.0047 23.669L17.5234 14.1877C17.3068 13.9552 17.0455 13.7688 16.7553 13.6394C16.465 13.5101 16.1516 13.4405 15.8339 13.4349C15.5162 13.4293 15.2006 13.4878 14.9059 13.6068C14.6112 13.7258 14.3436 13.903 14.1189 14.1277C13.8942 14.3524 13.717 14.62 13.598 14.9147C13.479 15.2093 13.4205 15.525 13.4261 15.8427C13.4318 16.1604 13.5013 16.4738 13.6306 16.764C13.76 17.0543 13.9465 17.3156 14.1789 17.5322L23.6539 27.0166L14.1726 36.4979C13.7546 36.9465 13.5271 37.5398 13.5379 38.1528C13.5487 38.7659 13.7971 39.3508 14.2306 39.7844C14.6642 40.2179 15.2491 40.4663 15.8622 40.4771C16.4752 40.4879 17.0685 40.2603 17.5171 39.8424L27.0047 30.3611L36.4859 39.8455C36.9345 40.2635 37.5278 40.4911 38.1409 40.4802C38.7539 40.4694 39.3389 40.2211 39.7724 39.7875C40.206 39.354 40.4543 38.769 40.4651 38.156C40.476 37.5429 40.2484 36.9496 39.8304 36.501L30.3555 27.0166L39.8336 17.5354Z" fill="#0D250E"/>
</svg>
