<svg width="19" height="20" viewBox="0 0 19 20" fill="none" xmlns="http://www.w3.org/2000/svg">
<path d="M17.6702 0.485352H1.37853C0.735304 0.485352 0.214844 1.00581 0.214844 1.64904V17.9407C0.214844 18.5839 0.735304 19.1044 1.37853 19.1044H17.6702C18.3134 19.1044 18.8339 18.5839 18.8339 17.9407V1.64904C18.8339 1.00581 18.3134 0.485352 17.6702 0.485352ZM7.19699 9.79488C7.19699 9.79488 7.38107 7.46749 9.52437 7.46749C11.6677 7.46749 11.8517 9.79488 11.8517 9.79488C11.8517 9.79488 11.9188 12.1223 9.52437 12.1223C7.12993 12.1223 7.19699 9.79488 7.19699 9.79488ZM16.5065 16.777H2.54222V8.63118H4.86961H5.03434C4.93779 9.00506 4.86961 9.39031 4.86961 9.79488C4.86961 12.3655 6.95377 14.4496 9.52437 14.4496C12.095 14.4496 14.1791 12.3654 14.1791 9.79488C14.1791 9.39031 14.1109 9.00506 14.0144 8.63118H14.1791H16.5065V16.777ZM16.5065 6.3038H13.0154V2.81273H16.5065V6.3038Z" fill="#A5A5A5"/>
</svg>
