<svg width="112" height="99" viewBox="0 0 112 99" fill="none" xmlns="http://www.w3.org/2000/svg">
<path d="M110.158 81.4098C110.158 80.3379 109.289 79.4689 108.217 79.4689H102.593C89.6955 79.4689 79.2396 69.0131 79.2396 56.1151C79.2396 53.6753 81.2175 51.6973 83.6574 51.6973H105.865C108.903 51.6973 111.365 49.2349 111.365 46.1973V6.95898C111.365 3.92141 108.903 1.45898 105.865 1.45898H67.8652C64.8277 1.45898 62.3652 3.92142 62.3652 6.95898V55.8346C62.3652 78.9758 80.8795 97.8638 104.016 98.3261L106.588 98.3775C108.548 98.4167 110.158 96.8386 110.158 94.8782V81.4098Z" fill="#BAFF3B" stroke="#BAFF3B"/>
<path d="M49.1575 82.359C49.1575 80.9783 48.0382 79.859 46.6575 79.859H27.028C25.376 79.859 24.0367 78.5198 24.0367 76.8677V75.9098C24.0367 62.6791 34.7623 51.9535 47.993 51.9535C49.3032 51.9535 50.3652 50.8915 50.3652 49.5813V6.95899C50.3652 3.92142 47.9028 1.45898 44.8652 1.45898H6.86523C3.82767 1.45898 1.36523 3.92142 1.36523 6.95898V55.959C1.36523 79.4311 20.3931 98.459 43.8652 98.459H45.6575C47.5905 98.459 49.1575 96.892 49.1575 94.959V82.359Z" stroke="#BAFF3B"/>
</svg>
