<svg width="22" height="19" viewBox="0 0 22 19" fill="none" xmlns="http://www.w3.org/2000/svg">
<path d="M21.2626 2.55977C20.4977 2.91215 19.6744 3.14984 18.8105 3.25621C19.6925 2.70904 20.3688 1.84233 20.6877 0.808399C19.8628 1.31573 18.9495 1.68387 17.9767 1.8826C17.1977 1.02289 16.088 0.485352 14.8605 0.485352C12.503 0.485352 10.5916 2.4661 10.5916 4.90953C10.5916 5.25578 10.6291 5.59327 10.7022 5.91763C7.15435 5.73291 4.00776 3.9719 1.90201 1.29472C1.53451 1.94782 1.32457 2.70817 1.32457 3.51929C1.32457 5.05442 2.07774 6.40877 3.22333 7.20151C2.52424 7.17831 1.86526 6.97914 1.28993 6.64777C1.28951 6.66616 1.28951 6.68498 1.28951 6.7038C1.28951 8.84695 2.76079 10.6347 4.71404 11.0417C4.35583 11.142 3.97862 11.1967 3.58915 11.1967C3.31415 11.1967 3.04634 11.1691 2.78613 11.117C3.32936 12.8745 4.90624 14.154 6.77375 14.1895C5.31261 15.3762 3.47256 16.0836 1.47157 16.0836C1.1273 16.0836 0.787257 16.0626 0.453125 16.0214C2.34302 17.2773 4.5869 18.0092 6.99763 18.0092C14.8508 18.0092 19.1446 11.2681 19.1446 5.42168C19.1446 5.22995 19.1408 5.03866 19.1328 4.84825C19.9667 4.22666 20.6907 3.44706 21.2626 2.55977Z" fill="#A5A5A5"/>
</svg>
