<svg width="19" height="19" viewBox="0 0 19 19" fill="none" xmlns="http://www.w3.org/2000/svg">
<path fill-rule="evenodd" clip-rule="evenodd" d="M0.949219 2.1875L2.94922 0.1875L18.9492 16.1875L16.9492 18.1875L0.949219 2.1875ZM10.9492 2.1875L11.9492 0.1875L12.9492 2.1875L14.9492 3.1875L12.9492 4.1875L11.9492 6.1875L10.9492 4.1875L8.94922 3.1875L10.9492 2.1875ZM2.94922 12.1875L3.94922 10.1875L4.94922 12.1875L6.94922 13.1875L4.94922 14.1875L3.94922 16.1875L2.94922 14.1875L0.949219 13.1875L2.94922 12.1875ZM1.94922 6.1875L2.94922 7.1875L1.94922 8.1875L0.949219 7.1875L1.94922 6.1875ZM15.9492 7.1875L16.9492 8.1875L15.9492 9.1875L14.9492 8.1875L15.9492 7.1875Z" fill="black"/>
</svg>
