<svg width="84" height="38" viewBox="0 0 84 38" fill="none" xmlns="http://www.w3.org/2000/svg">
<path d="M13.4933 11.0755C13.4933 8.56653 12.3377 6.70753 8.23576 5.88853C7.2833 5.69353 6.06415 5.53753 6.06415 5.26453C6.06415 5.10853 6.50863 5.00453 7.3214 5.00453C9.04852 5.00453 11.69 5.47253 13.2012 6.75953V1.33853C11.6011 0.688532 8.97232 0.519531 7.53729 0.519531C2.94009 0.519531 0.984375 2.24853 0.984375 5.45953C0.984375 7.90353 2.12732 9.80153 6.21655 10.6335C7.1817 10.8285 8.41355 10.9845 8.41355 11.2185C8.41355 11.4265 7.94367 11.5175 7.169 11.5175C5.40378 11.5175 2.7623 11.0495 1.27646 9.76253V15.1835C2.86389 15.7295 5.50538 15.8725 6.85152 15.8725C11.5249 15.8725 13.4933 14.1565 13.4933 11.0755Z" fill="#BAFF3B"/>
<path d="M23.9061 15.5995H28.9859V0.779531H23.9061V8.16353C23.9061 9.97053 23.3346 10.6335 21.9123 10.6335C20.4899 10.6335 19.855 9.97053 19.855 8.16353V0.779531H14.7752V8.18953C14.7752 13.2595 16.5531 15.8465 20.2359 15.8465C22.1028 15.8465 23.5378 15.3915 24.4268 13.2725L24.7823 13.4285L23.9061 15.5995Z" fill="#BAFF3B"/>
<path d="M35.8344 15.3915L34.9582 13.4415L35.3137 13.2855C36.3043 15.4045 37.9425 15.8595 40.0252 15.8595C44.1653 15.8595 46.1464 13.2985 46.1464 8.20253C46.1464 3.10653 44.1653 0.519531 40.0506 0.519531C38.2346 0.519531 36.8377 1.02653 35.8344 2.01453V0.792531H30.7546V18.9925H35.8344V15.3915ZM38.4632 10.6465C36.5075 10.6465 35.8344 9.98353 35.8344 8.17653C35.8344 6.38253 36.5075 5.71953 38.4632 5.71953C40.3935 5.71953 41.0666 6.39553 41.0666 8.17653C41.0666 9.97053 40.3935 10.6465 38.4632 10.6465Z" fill="#BAFF3B"/>
<path d="M52.7632 9.56753H61.983C62.2243 8.78753 62.3513 7.94253 62.3513 7.01953C62.3513 3.06753 59.9257 0.519531 54.8967 0.519531C49.855 0.519531 47.4167 3.06753 47.4167 8.07253C47.4167 13.0775 49.9566 15.5995 55.2015 15.5995H60.332L61.7036 10.3995H54.9602C53.7918 10.3995 53.1061 10.2045 52.7632 9.56753ZM57.6017 7.08453H52.5854C52.8267 6.00553 53.5759 5.71953 55.1253 5.71953C56.9159 5.71953 57.6017 6.10953 57.6017 7.08453Z" fill="#BAFF3B"/>
<path d="M74.7763 5.87553L74.3826 0.532532C71.0934 0.532532 69.5187 0.987531 68.4266 3.10653L68.071 2.95053L68.9472 0.779531H63.8675V15.5995H68.9472V8.96953C68.9472 7.00653 70.0394 5.87553 71.8681 5.87553H74.7763Z" fill="#BAFF3B"/>
<path d="M15.7477 37.4062H20.8275V29.2553C20.8275 28.1633 21.2338 27.5523 22.2117 27.5523C23.1895 27.5523 23.6086 28.1633 23.6086 29.2553V37.4062H28.6884V28.2153C28.6884 24.1333 27.228 22.3393 24.015 22.3393C22.199 22.3393 21.0179 22.9113 20.1671 24.4583C19.4813 23.0023 18.2241 22.3393 16.3572 22.3393C14.4523 22.3393 13.3094 23.0283 12.4458 24.9133L12.0902 24.7573L12.9665 22.5862H7.88672V37.4062H12.9665V29.2553C12.9665 28.1633 13.3602 27.5523 14.3507 27.5523C15.3159 27.5523 15.7477 28.1633 15.7477 29.2553V37.4062Z" fill="#BAFF3B"/>
<path d="M35.7833 37.4062V22.5862H30.7035V37.4062H35.7833Z" fill="#BAFF3B"/>
<path d="M43.1228 22.5862H38.043V37.4062H43.1228V30.0223C43.1228 28.2153 43.7578 27.5523 45.3198 27.5523C46.8819 27.5523 47.5803 28.2153 47.5803 30.0223V37.4062H52.6601V29.9963C52.6601 24.9263 50.806 22.3393 46.9707 22.3393C45.0277 22.3393 43.5292 22.7943 42.6021 24.9133L42.2466 24.7573L43.1228 22.5862Z" fill="#BAFF3B"/>
<path d="M63.8926 22.5993L64.7688 24.7573L64.4132 24.9133C63.4608 22.7943 61.8733 22.3393 59.8541 22.3393C55.8538 22.3393 53.9362 24.9263 53.9362 29.9963C53.9362 35.1183 55.8411 37.6793 59.8287 37.6793C61.5686 37.6793 62.9274 37.1723 63.8926 36.1842V37.4062H68.9723V17.9062H63.8926V22.5993ZM61.4416 27.5523C63.2703 27.5523 63.8926 28.2153 63.8926 30.0223C63.8926 31.8163 63.2703 32.4793 61.4416 32.4793C59.6509 32.4793 58.6604 31.8683 58.6604 30.0223C58.6604 28.2153 59.6509 27.5523 61.4416 27.5523Z" fill="#BAFF3B"/>
<path d="M83.014 32.8823C83.014 30.3733 81.8583 28.5143 77.7564 27.6953C76.8039 27.5003 75.5848 27.3443 75.5848 27.0713C75.5848 26.9153 76.0293 26.8112 76.842 26.8112C78.5691 26.8112 81.2106 27.2793 82.7219 28.5663V23.1453C81.1217 22.4953 78.493 22.3263 77.0579 22.3263C72.4607 22.3263 70.505 24.0553 70.505 27.2663C70.505 29.7103 71.6479 31.6083 75.7372 32.4403C76.7023 32.6353 77.9342 32.7913 77.9342 33.0253C77.9342 33.2333 77.4643 33.3243 76.6896 33.3243C74.9244 33.3243 72.2829 32.8563 70.7971 31.5693V36.9902C72.3845 37.5362 75.026 37.6793 76.3721 37.6793C81.0455 37.6793 83.014 35.9633 83.014 32.8823Z" fill="#BAFF3B"/>
<path d="M29.7305 21.5952C29.7305 23.6547 31.2226 25.1982 33.2733 25.1982C35.324 25.1982 36.8162 23.6547 36.8162 21.5952C36.8162 19.5357 35.324 17.9922 33.2733 17.9922C31.2226 17.9922 29.7305 19.5357 29.7305 21.5952Z" fill="#BAFF3B" stroke="black" stroke-width="2"/>
</svg>
