<svg width="152" height="45" viewBox="0 0 152 45" fill="none" xmlns="http://www.w3.org/2000/svg">
<rect x="0.488281" y="1.14453" width="41.6005" height="42.5647" fill="#BAFF3B"/>
<path d="M9.58459 35.008C16.265 34.2544 20.1337 30.7438 23.4577 26.7428L24.466 25.5259L25.3352 26.1169L19.633 34.8094H33.5409V9.84473L9.06304 9.84473L9.06304 21.0058L19.633 18.3285L19.9807 19.3021C16.9905 21.2144 13.4788 22.327 9.58459 22.327C9.5879 22.327 9.03706 22.327 9.03706 22.327L9.03706 35.008C9.03706 35.008 9.58319 35.008 9.58459 35.008Z" fill="black"/>
<path fill-rule="evenodd" clip-rule="evenodd" d="M90.7603 29.7886C91.5942 30.3482 92.6133 30.6706 93.7447 30.6706C94.845 30.6706 95.8389 30.3658 96.6597 29.8344V43.6866H90.7603V29.7886ZM129.305 26.4903L130.322 28.9965L129.909 29.1777C128.803 26.7168 126.96 26.1884 124.615 26.1884C119.969 26.1884 117.742 29.1928 117.742 35.0809C117.742 41.0294 119.954 44.0036 124.585 44.0036C126.606 44.0036 128.184 43.4148 129.305 42.2674V43.6866H135.204V21.04H129.305V26.4903ZM126.458 32.2425C128.582 32.2425 129.305 33.0125 129.305 35.1111C129.305 37.1946 128.582 37.9646 126.458 37.9646C124.379 37.9646 123.228 37.255 123.228 35.1111C123.228 33.0125 124.379 32.2425 126.458 32.2425ZM73.3911 43.6866H79.2906V34.2203C79.2906 32.9521 79.7625 32.2425 80.8982 32.2425C82.0338 32.2425 82.5205 32.9521 82.5205 34.2203V43.6866H88.42V33.0125C88.42 28.2718 86.7239 26.1884 82.9925 26.1884C80.8834 26.1884 79.5118 26.8527 78.5237 28.6493C77.7272 26.9583 76.2671 26.1884 74.0991 26.1884C71.8868 26.1884 70.5594 26.9885 69.5565 29.1777L69.1435 28.9965L70.1612 26.4752H64.2617V43.6866H70.1612V34.2203C70.1612 32.9521 70.6184 32.2425 71.7688 32.2425C72.8897 32.2425 73.3911 32.9521 73.3911 34.2203V43.6866ZM99.2841 26.4752H105.184L104.166 28.9965L104.579 29.1777C105.656 26.7168 107.396 26.1884 109.652 26.1884C114.106 26.1884 116.26 29.1928 116.26 35.0809V43.6866H110.36V35.1111C110.36 33.0125 109.549 32.2425 107.735 32.2425C105.921 32.2425 105.184 33.0125 105.184 35.1111V43.6866H99.2841V26.4752ZM145.406 32.4086C150.169 33.3598 151.512 35.5187 151.512 38.4326C151.512 42.0107 149.226 44.0036 143.798 44.0036C142.235 44.0036 139.167 43.8376 137.323 43.2035V36.9077C139.049 38.4024 142.117 38.9459 144.167 38.9459C145.066 38.9459 145.612 38.8402 145.612 38.5987C145.612 38.388 144.752 38.2317 143.843 38.0666C143.58 38.0187 143.312 37.9701 143.061 37.9193C138.312 36.953 136.984 34.7487 136.984 31.9104C136.984 28.1812 139.255 26.1733 144.594 26.1733C146.261 26.1733 149.314 26.3695 151.172 27.1244V33.4201C149.417 31.9255 146.35 31.382 144.344 31.382C143.4 31.382 142.884 31.5027 142.884 31.6839C142.884 31.936 143.779 32.1022 144.701 32.2735C144.939 32.3177 145.179 32.3622 145.406 32.4086Z" fill="#BAFF3B"/>
<path d="M93.7442 29.1614C92.026 29.1614 90.791 27.911 90.791 26.1384C90.791 24.3658 92.026 23.1153 93.7442 23.1153C95.4624 23.1153 96.6973 24.3658 96.6973 26.1384C96.6973 27.911 95.4624 29.1614 93.7442 29.1614Z" fill="#BAFF3B"/>
<path fill-rule="evenodd" clip-rule="evenodd" d="M70.7735 13.108C70.7735 10.1941 69.4314 8.03513 64.6676 7.08398C64.4409 7.03756 64.2011 6.99305 63.9633 6.94888C63.0405 6.77754 62.1455 6.61136 62.1455 6.35929C62.1455 6.17812 62.6617 6.05734 63.6057 6.05734C65.6115 6.05734 68.6792 6.60085 70.4343 8.09553V1.79979C68.576 1.0449 65.523 0.848633 63.8564 0.848633C58.5174 0.848633 56.2461 2.85663 56.2461 6.58576C56.2461 9.42412 57.5735 11.6284 62.3225 12.5946C62.5744 12.6455 62.8418 12.6941 63.1052 12.742C64.014 12.9071 64.874 13.0633 64.874 13.274C64.874 13.5156 64.3283 13.6213 63.4287 13.6213C61.3786 13.6213 58.3109 13.0778 56.5853 11.5831V17.8788C58.4289 18.5129 61.4966 18.679 63.06 18.679C68.4875 18.679 70.7735 16.6861 70.7735 13.108ZM82.8665 18.362H88.7659V1.15059H82.8665V9.72608C82.8665 11.8247 82.2028 12.5946 80.5509 12.5946C78.8991 12.5946 78.1616 11.8247 78.1616 9.72608V1.15059H72.2622V9.75627C72.2622 15.6444 74.327 18.6488 78.6041 18.6488C80.7722 18.6488 82.4388 18.1204 83.4712 15.6595L83.8841 15.8406L82.8665 18.362ZM95.7019 15.8557L96.7196 18.1204V22.3783C95.8875 21.8228 94.8721 21.503 93.7452 21.503C92.6405 21.503 91.6429 21.8103 90.8201 22.3458V1.16568H96.7196V2.58487C97.8847 1.43744 99.5071 0.848633 101.616 0.848633C106.395 0.848633 108.695 3.85307 108.695 9.77137C108.695 15.6897 106.395 18.6639 101.587 18.6639C99.1678 18.6639 97.2653 18.1355 96.1149 15.6746L95.7019 15.8557ZM96.7196 9.74117C96.7196 11.8398 97.5013 12.6097 99.7725 12.6097C102.014 12.6097 102.796 11.8247 102.796 9.74117C102.796 7.67279 102.014 6.88771 99.7725 6.88771C97.5013 6.88771 96.7196 7.65769 96.7196 9.74117ZM116.38 11.3566H127.087C127.368 10.4508 127.515 9.46942 127.515 8.39748C127.515 3.80778 124.698 0.848633 118.858 0.848633C113.003 0.848633 110.171 3.80778 110.171 9.62039C110.171 15.433 113.121 18.362 119.212 18.362H125.17L126.763 12.3229H118.931C117.575 12.3229 116.778 12.0964 116.38 11.3566ZM121.999 8.47297H116.173C116.454 7.21986 117.324 6.88771 119.123 6.88771C121.203 6.88771 121.999 7.34064 121.999 8.47297ZM141.488 0.863731L141.945 7.06888H138.568C136.444 7.06888 135.175 8.38238 135.175 10.6621V18.362H129.276V1.15059H135.175L134.158 3.6719L134.571 3.85307C135.839 1.39215 137.668 0.863731 141.488 0.863731Z" fill="#BAFF3B"/>
</svg>
