<svg width="21" height="20" viewBox="0 0 21 20" fill="none" xmlns="http://www.w3.org/2000/svg">
<path d="M5.26376 7.05762H0.882812V19.1052H5.26376V7.05762Z" fill="#A5A5A5"/>
<path d="M3.07329 4.8663C4.28306 4.8663 5.26376 3.88559 5.26376 2.67583C5.26376 1.46606 4.28306 0.485352 3.07329 0.485352C1.86352 0.485352 0.882812 1.46606 0.882812 2.67583C0.882812 3.88559 1.86352 4.8663 3.07329 4.8663Z" fill="#A5A5A5"/>
<path d="M15.6694 6.23535C14.1744 6.23973 12.7626 6.92645 11.836 8.10164V7.05678H7.45508V19.1044H11.836V11.4377C11.836 10.2286 12.8174 9.24726 14.0265 9.24726C15.2357 9.24726 16.217 10.2286 16.217 11.4377V19.1044H20.5979V11.1639C20.5979 8.44226 18.391 6.23535 15.6694 6.23535Z" fill="#A5A5A5"/>
</svg>
